<?xml version="1.0" standalone="no"?>
<!DOCTYPE svg PUBLIC "-//W3C//DTD SVG 20010904//EN"
 "http://www.w3.org/TR/2001/REC-SVG-20010904/DTD/svg10.dtd">
<svg version="1.0" xmlns="http://www.w3.org/2000/svg"
 width="500.000000pt" height="500.000000pt" viewBox="0 0 500.000000 500.000000"
 preserveAspectRatio="xMidYMid meet">

<g transform="translate(0.000000,500.000000) scale(0.100000,-0.100000)"
fill="#000000" stroke="none">
<path d="M2180 4914 c-526 -72 -997 -298 -1369 -659 -404 -392 -641 -852 -728
-1415 -25 -163 -24 -519 1 -685 124 -805 615 -1480 1331 -1830 247 -122 464
-190 730 -231 165 -26 531 -26 693 0 413 64 787 220 1112 462 123 92 335 295
427 409 265 327 441 718 514 1140 27 152 37 484 20 647 -36 345 -160 713 -343
1017 -188 310 -499 621 -809 809 -298 179 -666 305 -1001 341 -134 15 -451 12
-578 -5z m560 -355 c702 -83 1320 -528 1623 -1169 138 -290 199 -565 199 -885
0 -182 -12 -290 -48 -455 -171 -767 -761 -1370 -1524 -1559 -946 -234 -1925
221 -2355 1094 -112 227 -179 462 -206 715 -14 138 -7 395 16 530 80 483 325
924 688 1236 448 385 1023 562 1607 493z"/>
<path d="M2403 3572 c-6 -4 33 -7 87 -7 54 0 93 3 87 7 -7 4 -46 8 -87 8 -41
0 -80 -4 -87 -8z"/>
<path d="M1768 3562 c-10 -2 -18 -8 -18 -13 0 -5 -7 -9 -15 -9 -8 0 -15 4 -15
10 0 5 -27 8 -60 7 -46 -1 -56 -4 -42 -12 23 -13 168 -13 182 1 13 13 -5 23
-32 16z"/>
<path d="M1827 3563 c-4 -3 9 -17 27 -30 34 -22 36 -23 108 -8 40 8 145 19
233 25 87 6 161 13 164 15 2 3 -115 5 -261 5 -145 0 -268 -3 -271 -7z"/>
<path d="M2632 3565 c2 -3 76 -10 164 -15 87 -6 190 -18 227 -26 66 -14 70
-14 103 7 19 11 34 25 34 30 0 5 -111 9 -267 9 -146 0 -264 -2 -261 -5z"/>
<path d="M3185 3560 c-11 -18 0 -22 67 -27 39 -3 80 1 108 10 l45 14 -67 1
c-38 0 -68 -4 -68 -9 0 -11 -27 -12 -32 0 -5 14 -46 23 -53 11z"/>
<path d="M2425 3550 c-17 -6 -20 -15 -17 -48 2 -22 9 -42 15 -44 7 -2 42 -2
80 0 59 3 67 6 67 24 0 10 4 28 10 38 8 15 5 20 -22 29 -36 13 -104 13 -133 1z"/>
<path d="M1293 3528 c17 -11 269 -10 287 1 9 6 -44 9 -142 8 -86 -1 -152 -5
-145 -9z"/>
<path d="M3400 3530 c18 -11 287 -13 294 -2 2 4 -66 8 -152 9 -103 2 -152 -1
-142 -7z"/>
<path d="M1158 3523 c6 -2 18 -2 25 0 6 3 1 5 -13 5 -14 0 -19 -2 -12 -5z"/>
<path d="M3808 3523 c6 -2 18 -2 25 0 6 3 1 5 -13 5 -14 0 -19 -2 -12 -5z"/>
<path d="M1664 3506 c-11 -29 1 -61 24 -64 12 -2 22 -7 22 -12 0 -12 102 -59
117 -53 15 6 -32 48 -62 56 -18 4 -18 5 3 6 19 1 22 7 22 41 l0 40 -60 0 c-43
0 -62 -4 -66 -14z"/>
<path d="M3194 3506 c-11 -29 1 -60 26 -67 l25 -7 -26 -1 c-15 -1 -29 -8 -33
-16 -3 -9 -16 -20 -28 -25 -22 -8 -22 -9 5 -9 29 -1 101 31 112 49 3 5 15 10
26 10 16 0 19 7 19 40 l0 40 -60 0 c-43 0 -62 -4 -66 -14z"/>
<path d="M2338 3478 c17 -8 26 -8 34 0 9 9 4 12 -22 11 -33 0 -34 -1 -12 -11z"/>
<path d="M2618 3478 c17 -8 26 -8 34 0 9 9 4 12 -22 11 -33 0 -34 -1 -12 -11z"/>
<path d="M2310 3455 c0 -7 11 -10 30 -7 17 2 30 5 30 7 0 2 -13 5 -30 7 -19 3
-30 0 -30 -7z"/>
<path d="M2645 3460 c-21 -5 -24 -8 -9 -9 11 0 25 -6 32 -13 9 -9 12 -7 12 10
0 12 -1 21 -2 21 -2 -1 -16 -5 -33 -9z"/>
<path d="M3340 3448 c0 -10 -14 -22 -35 -29 -29 -11 -35 -18 -35 -41 0 -26 3
-28 39 -28 37 0 39 1 45 41 3 22 2 48 -3 57 -10 16 -10 16 -11 0z"/>
<path d="M1630 3425 c0 -12 3 -36 6 -51 5 -27 8 -29 45 -26 35 4 39 7 39 31
-1 21 -10 30 -45 47 l-45 21 0 -22z"/>
<path d="M2317 3420 c-9 -11 -29 -20 -45 -20 -17 0 -37 -9 -48 -21 l-19 -22
51 7 c43 5 53 3 69 -14 17 -18 30 -20 165 -20 134 0 148 2 165 20 15 17 26 19
74 13 l56 -6 -19 22 c-12 13 -31 21 -51 21 -19 0 -39 8 -50 20 -17 18 -31 20
-174 20 -144 0 -158 -2 -174 -20z"/>
<path d="M1740 3366 c0 -20 7 -27 38 -37 55 -16 86 -9 90 20 3 22 1 23 -27 18
-18 -4 -45 0 -66 8 -35 15 -35 15 -35 -9z"/>
<path d="M3205 3375 c-16 -7 -44 -11 -62 -8 -29 5 -33 3 -33 -16 0 -47 131
-32 138 17 4 25 -1 26 -43 7z"/>
<path d="M880 3363 c0 -5 19 -17 42 -28 23 -11 95 -55 160 -97 104 -68 121
-76 144 -68 14 6 36 10 50 10 17 0 24 6 24 20 0 10 7 23 16 28 35 20 -98 73
-299 121 -92 22 -137 26 -137 14z"/>
<path d="M3914 3335 c-72 -18 -162 -48 -200 -65 -64 -30 -67 -33 -46 -43 13
-6 21 -16 18 -24 -3 -8 0 -15 7 -17 100 -27 90 -29 195 41 53 35 125 80 160
100 34 19 62 37 62 39 0 12 -79 -1 -196 -31z"/>
<path d="M2049 3343 c-1 -4 0 -16 1 -26 1 -10 -4 -31 -11 -46 l-13 -29 -61 31
c-36 19 -84 34 -120 38 -33 4 -87 12 -119 18 -33 6 -62 9 -64 6 -6 -6 69 -36
77 -30 11 6 71 -12 189 -58 l102 -39 0 -53 c0 -30 5 -57 10 -60 6 -3 10 -15
10 -25 0 -14 -10 -21 -37 -25 -21 -4 -56 -11 -78 -17 l-40 -10 44 -23 c42 -21
47 -21 110 -9 36 8 84 19 106 25 33 8 49 7 83 -7 24 -9 44 -15 46 -13 2 2 6
18 9 36 6 29 2 35 -44 69 -40 29 -49 41 -45 58 6 24 -28 66 -54 66 -35 0 -69
38 -72 82 -2 23 -9 43 -15 46 -7 2 -14 0 -14 -5z m151 -233 c11 -11 20 -22 20
-24 0 -3 -116 -26 -133 -26 -26 0 16 55 48 63 37 9 45 7 65 -13z"/>
<path d="M2910 3319 c0 -47 -29 -88 -71 -99 -37 -10 -66 -47 -56 -73 3 -8 26
-18 50 -21 32 -5 50 -14 61 -31 9 -13 12 -26 7 -29 -12 -8 -131 14 -131 24 0
4 7 11 16 14 8 3 13 10 9 16 -3 5 -27 -4 -56 -23 -47 -30 -50 -34 -45 -66 3
-18 7 -35 9 -38 3 -2 22 3 43 12 37 14 46 14 144 -8 104 -23 106 -23 148 -5
23 11 40 23 37 28 -3 4 -37 14 -76 20 -59 10 -69 15 -63 29 4 9 12 44 18 79
l11 63 85 35 c90 37 144 53 197 59 32 4 78 23 71 30 -1 1 -25 -1 -53 -6 -27
-5 -77 -12 -110 -16 -33 -3 -91 -20 -131 -39 -72 -33 -72 -33 -78 -11 -3 12
-6 37 -6 55 0 22 -5 32 -15 32 -10 0 -15 -10 -15 -31z"/>
<path d="M2196 3324 c-28 -28 -13 -113 29 -158 31 -33 43 -33 56 2 5 15 33 51
62 80 46 46 49 52 28 52 -12 0 -34 9 -48 20 -32 25 -104 27 -127 4z"/>
<path d="M2658 3318 c-23 -18 -44 -22 -139 -25 -112 -3 -113 -3 -146 -36 -28
-28 -31 -37 -26 -69 4 -26 0 -45 -11 -64 -14 -21 -16 -41 -12 -117 11 -162 12
-181 20 -219 l8 -38 139 1 c76 0 141 4 144 9 10 15 28 172 29 250 1 54 -4 87
-17 117 -15 33 -17 45 -7 62 10 19 7 27 -20 58 -17 19 -29 38 -25 41 10 11
104 -91 110 -120 4 -15 10 -28 14 -28 15 0 52 33 66 60 18 35 20 111 3 128
-20 20 -99 14 -130 -10z m-13 -332 c11 -56 0 -77 -14 -30 l-13 41 -112 10
-111 10 122 1 122 2 6 -34z m-117 -23 c-4 -22 -44 -29 -63 -13 -22 18 -9 30
31 30 28 0 35 -4 32 -17z"/>
<path d="M1324 3206 c-4 -10 1 -25 10 -35 16 -17 15 -19 -9 -35 -20 -13 -25
-25 -25 -57 l0 -41 -55 4 c-36 2 -55 -1 -55 -8 0 -22 25 -71 35 -68 22 7 35
-14 41 -69 5 -41 3 -57 -5 -57 -6 0 -16 10 -21 23 -9 21 -9 21 -9 -4 -1 -18 7
-32 24 -43 30 -20 81 -21 88 -2 3 7 28 16 59 20 74 10 99 17 93 26 -7 11 14
17 105 31 41 6 82 17 90 24 8 7 36 16 63 20 26 4 47 10 47 13 0 12 -37 31 -62
32 -17 0 -29 7 -32 18 -4 10 -22 26 -42 35 -30 15 -45 16 -106 6 -79 -12 -88
-8 -88 46 0 25 -6 33 -31 42 -33 13 -32 33 2 33 29 0 23 19 -8 26 -16 4 -30
11 -33 15 -4 5 -20 12 -38 15 -24 5 -33 3 -38 -10z"/>
<path d="M3608 3213 c-10 -2 -18 -9 -18 -14 0 -5 -9 -9 -19 -9 -26 0 -51 -10
-51 -21 0 -5 11 -9 25 -9 35 0 32 -27 -5 -35 -28 -6 -30 -10 -30 -51 0 -50 -1
-51 -92 -34 -46 9 -63 8 -96 -5 -22 -9 -42 -25 -45 -36 -3 -12 -14 -19 -29
-19 -27 -1 -75 -25 -62 -32 5 -3 27 -9 49 -12 22 -4 49 -13 61 -21 11 -7 56
-18 100 -25 47 -7 84 -18 91 -27 6 -8 44 -20 84 -27 40 -7 74 -17 77 -24 5
-17 59 -15 87 4 31 20 35 50 6 34 -11 -5 -22 -10 -26 -10 -9 0 6 103 18 118
16 20 27 14 28 -15 1 -21 2 -23 6 -8 3 11 11 39 19 63 8 23 14 44 14 45 0 1
-24 0 -54 -1 l-55 -4 -3 44 c-3 36 -8 45 -32 57 -26 12 -28 15 -13 26 9 7 17
22 17 34 0 21 -13 24 -52 14z"/>
<path d="M2314 3199 c-6 -8 -14 -27 -18 -44 l-7 -30 21 21 c13 13 20 31 18 44
-2 19 -5 21 -14 9z"/>
<path d="M2657 3186 c-3 -8 3 -22 14 -32 17 -15 19 -15 19 -1 0 39 -22 61 -33
33z"/>
<path d="M1466 3142 c5 -5 54 -28 109 -52 55 -23 131 -60 170 -82 140 -78 198
-102 256 -106 31 -2 65 1 75 7 14 8 15 10 4 11 -15 0 -42 10 -413 153 -199 77
-219 84 -201 69z"/>
<path d="M3470 3134 c-19 -9 -80 -33 -135 -54 -55 -21 -171 -66 -258 -99 -86
-34 -165 -61 -175 -61 -14 0 -15 -2 -2 -10 24 -16 111 -11 160 8 25 9 90 42
145 72 110 60 283 140 303 140 6 0 12 5 12 10 0 13 -8 12 -50 -6z"/>
<path d="M2190 2950 c-6 -22 -15 -38 -20 -35 -12 8 -38 -49 -46 -103 -4 -26
-13 -57 -21 -69 -8 -12 -12 -27 -9 -32 4 -5 2 -12 -4 -16 -12 -7 -13 -25 -2
-25 5 0 23 48 41 106 33 107 48 127 81 106 15 -9 20 -5 34 31 20 53 20 63 0
71 -32 12 -43 5 -54 -34z"/>
<path d="M2733 2979 c-8 -8 -7 -23 5 -55 16 -42 18 -44 48 -38 l32 6 37 -111
c20 -61 41 -111 46 -111 8 0 1 24 -23 75 -5 11 -9 32 -10 45 -1 14 -6 31 -11
38 -6 7 -7 15 -4 18 9 10 -32 86 -43 79 -5 -3 -12 10 -16 30 -5 27 -11 35 -28
35 -12 0 -27 -5 -33 -11z"/>
<path d="M1222 2920 c0 -14 2 -19 5 -12 2 6 2 18 0 25 -3 6 -5 1 -5 -13z"/>
<path d="M3751 2884 c0 -11 3 -14 6 -6 3 7 2 16 -1 19 -3 4 -6 -2 -5 -13z"/>
<path d="M2176 2872 c-2 -4 -13 -43 -25 -86 -12 -44 -35 -104 -52 -134 -32
-59 -32 -70 0 -52 27 14 59 77 83 164 10 39 21 78 24 87 5 16 -21 35 -30 21z"/>
<path d="M2792 2871 c-11 -6 -9 -25 8 -91 24 -93 48 -146 79 -174 34 -31 37
-9 7 47 -16 29 -39 90 -51 135 -13 46 -25 86 -27 87 -2 2 -9 0 -16 -4z"/>
<path d="M2624 2648 c-78 -38 -152 -94 -181 -137 -34 -51 -28 -60 15 -20 49
47 112 94 112 83 0 -5 -27 -36 -60 -69 -33 -33 -60 -64 -60 -69 0 -13 72 4
101 25 15 11 39 33 54 51 30 35 88 145 83 158 -2 4 -30 -5 -64 -22z"/>
<path d="M2316 2633 c10 -41 39 -95 62 -116 20 -18 21 -17 65 27 l46 45 -26
21 c-24 19 -111 50 -140 50 -10 0 -11 -8 -7 -27z"/>
<path d="M2895 2523 c-129 -18 -375 -105 -375 -132 0 -20 29 -17 100 11 41 16
134 44 205 62 95 24 131 38 133 50 4 16 -2 17 -63 9z"/>
<path d="M1950 2478 c0 -12 22 -18 93 -27 207 -27 336 -75 552 -205 18 -11 4
7 -33 42 -118 113 -303 185 -509 198 -88 6 -103 5 -103 -8z"/>
<path d="M2813 2426 c-45 -12 -114 -35 -153 -51 -64 -26 -68 -29 -51 -42 17
-11 27 -10 73 7 61 24 234 70 260 70 11 0 18 7 18 20 0 27 -39 26 -147 -4z"/>
<path d="M1950 2416 c0 -9 3 -16 8 -16 4 0 48 -7 97 -15 159 -28 306 -82 438
-163 37 -23 67 -38 67 -33 0 5 -28 32 -62 60 -119 99 -291 164 -465 178 -73 5
-83 4 -83 -11z"/>
<path d="M1086 1743 c-15 -76 -30 -148 -33 -161 -5 -21 -3 -23 28 -20 29 3 35
7 39 33 5 26 9 30 39 30 31 0 36 -4 43 -32 7 -28 13 -33 38 -33 17 0 30 4 30
10 0 5 -13 74 -30 153 -16 80 -30 147 -30 151 0 3 -22 6 -48 6 l-48 0 -28
-137z m90 -3 c10 -60 10 -60 -14 -60 -24 0 -24 2 -18 46 3 26 6 53 6 60 0 8 4
14 8 14 5 0 13 -27 18 -60z"/>
<path d="M1398 1870 c-35 -21 -51 -168 -28 -252 14 -49 36 -60 113 -56 l62 3
0 90 0 90 -42 3 c-42 3 -43 2 -43 -27 0 -21 5 -31 15 -31 11 0 15 -11 15 -41
0 -38 -2 -40 -27 -37 -24 3 -29 9 -36 48 -4 25 -5 69 -2 98 8 62 27 77 87 67
39 -7 39 -7 36 21 -3 28 -5 29 -68 31 -36 2 -73 -2 -82 -7z"/>
<path d="M1660 1720 l0 -160 30 0 c30 0 30 1 30 55 0 47 3 55 18 55 14 0 22
-13 32 -55 13 -53 14 -55 47 -55 18 0 33 1 33 3 0 2 -7 27 -16 56 -13 45 -13
58 -3 84 7 17 12 56 12 86 -2 76 -21 91 -114 91 l-69 0 0 -160z m118 53 c3
-42 2 -43 -27 -43 -30 0 -31 1 -31 46 0 44 1 45 28 42 24 -3 27 -7 30 -45z"/>
<path d="M1970 1860 c-18 -18 -20 -33 -20 -140 0 -147 8 -160 95 -160 87 0 95
13 95 160 0 147 -8 160 -95 160 -42 0 -60 -5 -75 -20z m98 -42 c19 -19 16
-182 -4 -199 -11 -9 -20 -10 -32 -2 -13 8 -18 29 -20 98 -3 86 5 115 32 115 7
0 17 -5 24 -12z"/>
<path d="M2421 1861 c-39 -39 -39 -243 1 -283 15 -15 30 -18 71 -16 45 3 52 6
55 26 3 19 -1 22 -30 22 -51 0 -58 13 -58 112 0 78 2 88 21 99 12 6 30 9 40 6
15 -4 19 0 19 24 0 28 -1 29 -50 29 -36 0 -55 -5 -69 -19z"/>
<path d="M2664 1859 c-16 -18 -19 -37 -19 -139 0 -147 8 -160 95 -160 87 0 95
13 95 160 0 147 -8 160 -95 160 -45 0 -61 -4 -76 -21z m94 -37 c9 -6 12 -35
10 -108 -3 -98 -3 -99 -28 -99 -22 0 -26 6 -32 45 -9 56 1 152 16 162 14 10
18 10 34 0z"/>
<path d="M2950 1721 l0 -161 30 0 c29 0 30 1 30 50 l0 50 34 0 c19 0 45 9 60
21 23 18 26 27 26 88 0 94 -10 105 -104 109 l-76 4 0 -161z m115 49 c0 -42 -2
-45 -27 -48 -27 -3 -28 -2 -28 48 0 50 1 51 28 48 25 -3 27 -6 27 -48z"/>
<path d="M3210 1850 c0 -27 3 -30 30 -30 l30 0 0 -130 0 -130 35 0 35 0 0 130
0 130 30 0 c27 0 30 3 30 30 l0 30 -95 0 -95 0 0 -30z"/>
<path d="M3490 1720 l0 -160 75 0 75 0 0 30 c0 29 -2 30 -45 30 -45 0 -45 0
-45 35 0 34 1 35 40 35 38 0 40 2 40 30 0 28 -2 30 -40 30 -39 0 -40 1 -40 35
0 35 0 35 45 35 43 0 45 1 45 30 l0 30 -75 0 -75 0 0 -160z"/>
<path d="M3750 1720 l0 -160 30 0 c30 0 30 1 30 55 0 47 3 55 19 55 14 0 22
-13 33 -52 13 -48 17 -53 46 -56 37 -4 37 -4 17 63 -14 44 -14 52 1 83 11 24
15 51 11 85 -6 71 -29 87 -118 87 l-69 0 0 -160z m120 55 c0 -43 -1 -45 -30
-45 -29 0 -30 2 -30 45 0 43 1 45 30 45 29 0 30 -2 30 -45z"/>
<path d="M2520 1274 c0 -8 5 -12 10 -9 6 4 8 11 5 16 -9 14 -15 11 -15 -7z"/>
<path d="M1816 1269 c-28 -81 -51 -189 -40 -189 11 0 59 189 50 197 -3 3 -8 0
-10 -8z"/>
<path d="M2817 1273 c-4 -7 -18 -53 -53 -175 -3 -10 -1 -18 4 -18 10 0 66 189
58 197 -2 2 -6 1 -9 -4z"/>
<path d="M3265 1272 c-6 -4 -11 -16 -13 -27 -2 -11 -13 -51 -24 -88 -11 -37
-18 -71 -14 -74 3 -4 7 -4 9 -2 5 6 56 193 53 196 -1 1 -6 -1 -11 -5z"/>
<path d="M1377 1248 c7 -7 15 -49 19 -91 4 -43 11 -74 15 -70 5 5 5 44 1 88
-6 68 -10 80 -27 84 -16 3 -17 1 -8 -11z"/>
<path d="M1516 1248 c-2 -7 -12 -42 -21 -77 -9 -36 -19 -71 -22 -78 -3 -7 2
-13 11 -13 10 0 16 9 16 23 0 12 9 51 20 87 23 77 22 70 10 70 -6 0 -12 -6
-14 -12z"/>
<path d="M2430 1218 c-19 -73 -32 -113 -43 -125 -7 -10 -4 -13 9 -13 15 0 23
16 40 86 11 47 17 87 13 90 -5 2 -13 -15 -19 -38z"/>
<path d="M2360 1240 c0 -5 5 -10 10 -10 6 0 10 5 10 10 0 6 -4 10 -10 10 -5 0
-10 -4 -10 -10z"/>
<path d="M1591 1184 c-12 -15 -21 -41 -21 -60 0 -47 15 -50 17 -3 0 22 8 51
17 64 22 33 13 32 -13 -1z"/>
<path d="M1647 1164 c-2 -24 -13 -54 -23 -65 -15 -17 -15 -19 -2 -14 31 12 62
105 39 119 -5 3 -11 -15 -14 -40z"/>
<path d="M1731 1183 c-25 -30 -36 -66 -27 -88 10 -26 23 -16 18 15 -3 19 3 43
17 65 24 42 21 45 -8 8z"/>
<path d="M1881 1183 c-41 -51 -40 -104 1 -102 17 1 18 2 6 6 -23 6 -23 39 1
86 22 44 20 47 -8 10z"/>
<path d="M1928 1185 c-4 -20 -3 -23 8 -14 16 13 19 39 5 39 -5 0 -11 -11 -13
-25z"/>
<path d="M2001 1160 c-8 -30 -16 -61 -18 -67 -3 -7 -1 -13 5 -13 12 0 35 80
30 111 -2 17 -7 8 -17 -31z"/>
<path d="M2060 1200 c0 -5 5 -10 10 -10 6 0 10 5 10 10 0 6 -4 10 -10 10 -5 0
-10 -4 -10 -10z"/>
<path d="M2119 1145 c-16 -66 -9 -92 10 -32 17 55 23 97 14 97 -4 0 -15 -29
-24 -65z"/>
<path d="M2188 1150 c-20 -75 -7 -88 15 -16 19 59 21 76 9 76 -4 0 -15 -27
-24 -60z"/>
<path d="M2545 1179 c-35 -42 -32 -93 5 -96 14 -2 19 0 10 4 -8 3 -18 10 -21
16 -9 14 7 66 27 88 10 11 15 19 11 19 -3 0 -17 -14 -32 -31z"/>
<path d="M2597 1191 c-4 -17 -3 -21 5 -13 5 5 8 16 6 23 -3 8 -7 3 -11 -10z"/>
<path d="M2671 1188 c-22 -23 -37 -80 -26 -97 3 -6 16 -10 28 -10 19 1 19 2 3
6 -15 4 -17 12 -13 45 3 22 13 48 23 59 9 10 14 19 11 19 -3 0 -15 -10 -26
-22z"/>
<path d="M2847 1156 c-19 -59 -21 -76 -9 -76 11 0 42 119 33 125 -4 2 -15 -20
-24 -49z"/>
<path d="M2941 1160 c-8 -30 -16 -61 -18 -67 -3 -7 -1 -13 5 -13 12 0 35 80
30 111 -2 17 -7 8 -17 -31z"/>
<path d="M3011 1163 c-7 -27 -15 -56 -18 -65 -3 -10 -1 -18 4 -18 5 0 15 21
22 48 7 26 15 55 18 65 3 9 1 17 -4 17 -5 0 -15 -21 -22 -47z"/>
<path d="M3101 1184 c-12 -15 -21 -41 -21 -60 0 -47 15 -50 17 -3 0 22 8 51
17 64 22 33 13 32 -13 -1z"/>
<path d="M3157 1164 c-2 -24 -13 -54 -23 -65 -15 -17 -15 -19 -2 -14 31 12 62
105 39 119 -5 3 -11 -15 -14 -40z"/>
<path d="M3326 1191 c-20 -22 -33 -95 -19 -104 6 -4 10 9 11 28 1 19 8 48 17
65 18 35 15 38 -9 11z"/>
<path d="M3380 1175 c0 -20 -7 -49 -15 -65 -21 -40 -10 -38 15 3 21 34 26 82
10 92 -6 4 -10 -8 -10 -30z"/>
<path d="M3456 1189 c-8 -12 -12 -28 -8 -37 4 -12 7 -10 13 10 4 15 10 31 14
37 12 20 -4 11 -19 -10z"/>
<path d="M3508 1181 c-3 -17 -1 -31 3 -31 13 0 22 41 11 52 -6 6 -11 -1 -14
-21z"/>
<path d="M3588 1193 c5 -10 13 -39 16 -66 4 -26 11 -45 15 -43 14 9 -10 126
-26 126 -10 0 -11 -5 -5 -17z"/>
<path d="M3650 1201 c0 -6 5 -13 10 -16 6 -3 10 1 10 9 0 9 -4 16 -10 16 -5 0
-10 -4 -10 -9z"/>
<path d="M2720 1190 c0 -5 5 -10 10 -10 6 0 10 5 10 10 0 6 -4 10 -10 10 -5 0
-10 -4 -10 -10z"/>
<path d="M3440 1100 c0 -6 13 -13 29 -16 17 -4 32 -14 34 -23 3 -11 5 -10 6 6
1 15 -8 24 -30 32 -39 13 -39 13 -39 1z"/>
<path d="M3410 1056 c0 -8 4 -17 8 -20 4 -2 8 4 8 15 0 10 -4 19 -8 19 -4 0
-8 -6 -8 -14z"/>
<path d="M3548 1043 c7 -3 16 -2 19 1 4 3 -2 6 -13 5 -11 0 -14 -3 -6 -6z"/>
</g>
</svg>
