<?xml version="1.0" standalone="no"?>
<!DOCTYPE svg PUBLIC "-//W3C//DTD SVG 20010904//EN"
 "http://www.w3.org/TR/2001/REC-SVG-20010904/DTD/svg10.dtd">
<svg version="1.0" xmlns="http://www.w3.org/2000/svg"
 width="500.000000pt" height="500.000000pt" viewBox="0 0 500.000000 500.000000"
 preserveAspectRatio="xMidYMid meet">

<g transform="translate(0.000000,500.000000) scale(0.100000,-0.100000)"
fill="#000000" stroke="none">
<path d="M2390 4534 c-426 -27 -831 -182 -1160 -444 -437 -349 -708 -855 -760
-1421 -12 -131 -1 -377 24 -517 58 -324 196 -636 395 -897 68 -90 245 -268
341 -345 232 -184 491 -312 779 -385 141 -35 201 -44 353 -55 816 -59 1609
400 1964 1135 226 468 270 964 128 1458 -113 395 -337 737 -659 1005 -280 234
-641 395 -1003 447 -104 14 -312 24 -402 19z m250 -224 c591 -53 1106 -372
1409 -874 269 -447 332 -995 171 -1490 -134 -410 -408 -762 -772 -988 -214
-133 -479 -227 -732 -258 -142 -18 -433 -8 -570 19 -723 146 -1281 700 -1432
1424 -32 155 -42 394 -24 558 40 374 209 746 465 1026 378 412 936 631 1485
583z"/>
<path d="M1922 3431 c-10 -6 -6 -12 14 -26 23 -15 34 -16 83 -6 31 5 112 14
181 18 124 8 124 8 55 14 -105 10 -318 10 -333 0z"/>
<path d="M2730 3431 c-60 -6 -55 -7 65 -14 72 -5 151 -13 177 -18 38 -8 52 -7
79 6 24 13 29 19 18 26 -15 9 -232 9 -339 0z"/>
<path d="M1750 3421 c-23 -7 -22 -8 14 -15 41 -8 59 -1 36 14 -17 11 -15 11
-50 1z"/>
<path d="M1850 3420 c-12 -8 -9 -10 13 -10 15 0 27 5 27 10 0 13 -20 13 -40 0z"/>
<path d="M2450 3422 c-20 -6 -26 -15 -28 -45 l-3 -38 73 3 c72 3 73 3 76 32 2
16 0 32 -5 37 -12 12 -84 19 -113 11z"/>
<path d="M3100 3420 c0 -5 12 -10 28 -10 21 0 24 2 12 10 -20 13 -40 13 -40 0z"/>
<path d="M3188 3423 c-26 -6 -22 -23 5 -22 29 1 77 17 55 18 -9 1 -22 3 -30 5
-7 2 -21 2 -30 -1z"/>
<path d="M1458 3403 c12 -2 30 -2 40 0 9 3 -1 5 -23 4 -22 0 -30 -2 -17 -4z"/>
<path d="M1603 3398 c26 -7 49 -7 70 0 28 9 24 10 -38 10 -66 0 -68 -1 -32
-10z"/>
<path d="M3313 3398 c19 -7 44 -7 75 0 47 10 47 10 -28 10 -62 0 -70 -1 -47
-10z"/>
<path d="M3488 3403 c12 -2 32 -2 45 0 12 2 2 4 -23 4 -25 0 -35 -2 -22 -4z"/>
<path d="M1770 3362 c0 -23 9 -32 59 -60 68 -37 110 -45 68 -12 -14 11 -31 20
-39 20 -8 1 -7 4 5 11 10 6 17 22 17 39 0 30 -1 30 -55 30 -53 0 -55 -1 -55
-28z"/>
<path d="M3110 3360 c0 -19 6 -33 16 -37 16 -6 5 -15 -51 -42 -18 -9 -18 -10
6 -10 14 -1 42 10 62 23 19 13 44 27 56 31 15 4 21 15 21 36 0 29 -1 29 -55
29 -55 0 -55 0 -55 -30z"/>
<path d="M2358 3353 c6 -2 18 -2 25 0 6 3 1 5 -13 5 -14 0 -19 -2 -12 -5z"/>
<path d="M2608 3353 c7 -3 16 -2 19 1 4 3 -2 6 -13 5 -11 0 -14 -3 -6 -6z"/>
<path d="M1743 3291 c3 -22 12 -48 21 -56 14 -15 18 -15 31 -1 25 25 18 52
-21 75 l-37 22 6 -40z"/>
<path d="M3208 3306 c-43 -24 -46 -34 -20 -63 24 -29 49 -9 58 45 4 23 5 42 3
41 -2 -1 -21 -11 -41 -23z"/>
<path d="M2347 3306 c-3 -8 -24 -17 -46 -21 -55 -9 -61 -31 -7 -27 29 3 46 -1
55 -12 20 -24 272 -24 292 0 10 12 25 15 55 11 56 -6 49 19 -7 28 -22 4 -43
13 -46 21 -4 11 -35 14 -148 14 -113 0 -144 -3 -148 -14z"/>
<path d="M3120 3265 c-14 -7 -37 -11 -52 -8 -23 5 -28 2 -28 -15 0 -16 8 -22
33 -25 32 -4 32 -4 -5 -5 -21 -1 -67 -16 -102 -34 -36 -18 -68 -29 -72 -26 -3
4 -8 25 -11 47 -6 44 -23 56 -23 16 0 -39 -21 -75 -49 -82 -38 -8 -61 -32 -61
-62 0 -20 -10 -32 -40 -51 -39 -24 -47 -41 -34 -74 5 -13 10 -14 38 -2 27 11
45 10 129 -7 95 -20 98 -20 135 -2 l37 18 -30 7 c-16 5 -47 11 -67 14 -38 7
-50 29 -29 52 6 5 11 29 13 52 l3 44 69 29 c72 31 131 48 179 54 16 2 31 6 34
9 7 7 -7 9 -52 7 -28 -1 -28 0 -7 9 12 5 22 18 22 30 0 23 2 23 -30 5z m-280
-237 c27 -29 14 -39 -42 -32 -64 9 -78 19 -53 38 29 22 71 19 95 -6z"/>
<path d="M1840 3256 c0 -35 102 -48 108 -13 3 14 -3 17 -30 16 -18 -1 -43 2
-55 6 -18 6 -23 3 -23 -9z"/>
<path d="M1158 3211 c45 -27 107 -67 139 -89 56 -38 60 -39 104 -29 31 7 49
18 56 34 10 22 8 25 -30 45 -44 22 -285 87 -326 88 -18 0 -2 -13 57 -49z"/>
<path d="M3725 3226 c-66 -17 -139 -42 -162 -54 -38 -20 -40 -23 -30 -45 7
-16 25 -27 56 -34 44 -10 46 -9 110 34 36 25 99 65 140 89 72 42 74 44 41 43
-19 -1 -89 -15 -155 -33z"/>
<path d="M2100 3208 c0 -59 -10 -63 -78 -29 -34 17 -76 31 -94 31 -18 0 -49 4
-69 9 -21 5 -43 5 -50 0 -8 -5 -9 -9 -4 -10 70 -6 127 -22 211 -58 l69 -29 3
-49 c2 -26 7 -52 13 -58 19 -19 8 -34 -28 -41 -21 -3 -51 -9 -68 -13 l-30 -8
34 -18 c31 -16 42 -16 105 -5 39 7 81 16 94 21 15 6 35 4 59 -6 42 -18 41 -18
48 21 5 26 2 31 -34 52 -33 18 -41 28 -41 51 0 30 -27 61 -53 61 -27 0 -57 41
-57 77 0 23 -5 33 -15 33 -10 0 -15 -10 -15 -32z m137 -174 c21 -21 8 -30 -54
-38 -58 -7 -64 -1 -33 32 24 26 65 29 87 6z"/>
<path d="M2273 3233 c-44 -6 -56 -24 -48 -73 6 -38 47 -100 65 -100 5 0 12 10
15 23 4 12 28 43 53 70 39 39 43 47 25 47 -11 0 -32 9 -46 20 -14 11 -27 19
-29 18 -1 0 -17 -3 -35 -5z"/>
<path d="M2650 3220 c-14 -11 -34 -20 -45 -20 -15 0 -10 -9 27 -47 25 -27 49
-58 53 -71 9 -29 24 -24 53 18 25 37 31 118 10 124 -47 15 -75 13 -98 -4z"/>
<path d="M2451 3192 c-44 -5 -85 -52 -87 -101 -1 -20 -7 -67 -14 -106 -9 -52
-9 -79 0 -111 7 -23 11 -52 9 -65 -1 -13 1 -39 5 -56 l8 -33 123 0 124 0 6 58
c3 31 10 71 15 88 15 47 12 109 -10 171 -12 36 -16 61 -11 72 6 11 1 25 -18
47 -27 33 -77 45 -150 36z m176 -282 l2 -45 -16 32 c-17 33 -43 43 -117 43
-22 0 -48 5 -56 10 -10 7 16 9 85 8 l100 -3 2 -45z m-101 -1 c3 -6 0 -15 -7
-20 -21 -14 -53 -6 -57 14 -3 13 3 17 27 17 16 0 33 -5 37 -11z"/>
<path d="M1473 3114 c-4 -10 1 -22 11 -29 15 -11 14 -14 -9 -29 -19 -12 -25
-25 -25 -51 0 -35 0 -35 -45 -35 -46 0 -50 -4 -39 -46 4 -15 12 -20 24 -17 22
6 26 -1 35 -61 7 -47 7 -49 -14 -43 -23 6 -27 -3 -9 -21 14 -14 74 -16 82 -3
3 5 31 12 61 16 30 3 61 13 69 20 8 8 47 20 88 26 40 6 80 17 88 24 8 7 34 16
58 20 39 6 41 8 25 21 -10 7 -28 14 -41 14 -12 0 -25 7 -29 15 -12 33 -59 47
-120 35 -83 -15 -83 -15 -83 30 0 34 -4 41 -25 46 -31 8 -33 31 -2 37 21 3 21
4 2 11 -11 4 -32 14 -47 22 -34 18 -47 18 -55 -2z"/>
<path d="M3464 3115 c-10 -8 -29 -15 -41 -15 -28 0 -30 -16 -3 -23 28 -7 25
-24 -5 -31 -21 -5 -25 -12 -25 -46 0 -45 0 -45 -83 -30 -61 12 -108 -2 -120
-35 -4 -8 -17 -15 -30 -15 -13 0 -32 -6 -42 -14 -17 -12 -15 -14 21 -20 21 -4
48 -13 59 -21 12 -7 54 -18 94 -24 40 -6 79 -18 87 -26 8 -7 39 -17 69 -20 30
-4 58 -11 61 -16 12 -20 94 -2 94 20 0 5 -9 7 -21 4 -19 -5 -20 -3 -14 43 9
60 11 64 35 64 18 0 30 19 30 48 0 14 -8 16 -45 14 l-45 -4 0 36 c0 27 -6 40
-25 52 -22 15 -23 18 -10 38 23 35 -4 49 -41 21z"/>
<path d="M2330 3101 c0 -5 -3 -18 -7 -28 -6 -16 -5 -16 10 -4 19 15 23 41 7
41 -5 0 -10 -4 -10 -9z"/>
<path d="M2640 3096 c0 -8 5 -18 10 -21 6 -3 10 1 10 9 0 8 -4 18 -10 21 -5 3
-10 -1 -10 -9z"/>
<path d="M1595 3060 c3 -5 14 -10 23 -10 15 0 15 2 2 10 -20 13 -33 13 -25 0z"/>
<path d="M3210 2999 c-96 -38 -211 -83 -255 -101 -103 -40 -111 -48 -48 -48
45 0 75 12 248 100 109 55 206 100 217 100 10 0 18 5 18 10 0 6 -1 10 -2 9 -2
0 -82 -32 -178 -70z"/>
<path d="M1660 3035 c14 -8 30 -14 35 -14 6 0 -1 6 -15 14 -14 8 -29 14 -35
14 -5 0 1 -6 15 -14z"/>
<path d="M1710 3015 c0 -2 30 -19 68 -38 37 -18 105 -52 152 -77 66 -34 99
-45 145 -48 69 -5 65 4 -15 35 -30 12 -119 47 -197 77 -143 56 -153 60 -153
51z"/>
<path d="M2237 2923 c-4 -3 -7 -14 -7 -23 0 -9 -11 -29 -24 -45 -13 -15 -26
-44 -30 -63 -8 -52 -1 -50 14 3 12 43 15 46 43 43 26 -3 31 2 45 36 13 32 13
39 1 47 -17 10 -33 11 -42 2z"/>
<path d="M2711 2921 c-12 -8 -13 -16 -3 -49 11 -36 15 -40 44 -38 28 1 32 -3
45 -42 9 -24 17 -41 20 -39 9 10 -18 88 -37 107 -11 11 -22 31 -26 45 -6 26
-19 31 -43 16z"/>
<path d="M2216 2819 c-3 -8 -12 -41 -21 -74 -9 -32 -28 -80 -41 -105 -26 -49
-29 -60 -14 -60 34 0 116 218 91 243 -7 7 -12 6 -15 -4z"/>
<path d="M2756 2822 c-13 -21 35 -179 64 -214 38 -45 49 -29 17 24 -14 24 -33
73 -42 108 -20 77 -29 97 -39 82z"/>
<path d="M2827 2699 c4 -13 8 -18 11 -10 2 7 -1 18 -6 23 -8 8 -9 4 -5 -13z"/>
<path d="M2145 2701 c-3 -5 -1 -12 5 -16 5 -3 10 1 10 9 0 18 -6 21 -15 7z"/>
<path d="M2566 2603 c-48 -28 -90 -62 -107 -86 -39 -54 -37 -61 6 -21 43 40
95 78 95 69 0 -4 -23 -33 -52 -64 -39 -43 -47 -57 -35 -59 48 -10 151 90 184
178 16 41 4 39 -91 -17z"/>
<path d="M2340 2633 c0 -30 24 -83 47 -105 l28 -25 37 38 37 38 -42 25 c-45
26 -107 43 -107 29z"/>
<path d="M2775 2505 c-111 -25 -265 -89 -249 -105 5 -5 54 7 109 26 55 20 136
43 179 53 44 9 82 23 84 29 5 15 -44 14 -123 -3z"/>
<path d="M2022 2479 c3 -9 29 -16 78 -21 141 -15 353 -89 451 -159 53 -37 41
-14 -16 32 -112 91 -257 144 -429 156 -74 5 -88 4 -84 -8z"/>
<path d="M2810 2440 c-47 -10 -119 -31 -160 -48 -66 -26 -72 -31 -50 -37 17
-4 58 5 117 25 50 16 112 33 137 36 36 5 46 11 46 25 0 11 -1 19 -2 18 -2 0
-41 -9 -88 -19z"/>
<path d="M2020 2427 c0 -9 28 -17 83 -25 112 -16 240 -61 350 -122 76 -42 87
-46 67 -24 -70 76 -240 154 -380 174 -90 13 -120 12 -120 -3z"/>
<path d="M1285 1948 c-2 -7 -13 -62 -25 -123 -12 -60 -24 -118 -26 -127 -4
-14 1 -18 25 -18 26 0 31 4 31 25 0 22 4 25 34 25 28 0 35 -4 38 -22 2 -17 11
-24 31 -26 33 -4 33 -6 2 148 -14 68 -25 124 -25 126 0 11 -81 2 -85 -8z m59
-125 c6 -39 4 -43 -14 -43 -22 0 -25 15 -14 69 8 40 19 29 28 -26z"/>
<path d="M1538 1949 c-34 -19 -49 -142 -28 -221 9 -31 17 -39 48 -49 24 -7 50
-8 72 -2 l35 9 0 75 0 74 -37 3 c-35 3 -38 1 -38 -22 0 -14 5 -26 10 -26 6 0
10 -16 10 -35 0 -28 -4 -35 -19 -35 -10 0 -22 7 -25 16 -11 28 -6 150 6 162 7
7 31 12 55 12 36 0 43 3 43 19 0 10 -7 22 -16 25 -24 9 -97 7 -116 -5z"/>
<path d="M1767 1953 c-4 -3 -7 -66 -7 -140 l0 -133 30 0 c29 0 30 2 30 45 0
31 4 45 14 45 7 0 19 -20 26 -45 11 -40 16 -45 41 -45 16 0 29 1 29 3 0 1 -7
24 -15 51 -12 38 -12 52 -3 63 7 8 12 40 12 70 1 71 -22 93 -98 93 -29 0 -56
-3 -59 -7z m91 -52 c8 -5 12 -22 10 -42 -2 -26 -8 -35 -25 -37 -21 -3 -23 1
-23 42 0 46 10 55 38 37z"/>
<path d="M2042 1944 c-20 -14 -22 -23 -22 -123 0 -133 7 -145 79 -145 73 0 85
15 90 116 4 98 -10 153 -42 162 -39 10 -82 6 -105 -10z m83 -129 c0 -80 -2
-90 -19 -93 -28 -6 -36 15 -36 99 0 82 4 91 35 87 18 -3 20 -10 20 -93z"/>
<path d="M2431 1939 c-18 -20 -21 -35 -21 -117 0 -51 5 -102 11 -113 22 -43
119 -49 119 -8 0 14 -7 19 -30 19 -38 0 -50 23 -50 95 0 73 12 95 51 95 26 0
30 3 27 23 -2 18 -10 23 -45 25 -32 2 -46 -2 -62 -19z"/>
<path d="M2649 1941 c-23 -18 -24 -26 -24 -125 0 -127 8 -140 85 -140 77 0 85
13 85 140 0 99 -1 107 -24 125 -30 25 -92 25 -122 0z m86 -126 c0 -89 0 -90
-25 -90 -24 0 -25 2 -28 79 -3 94 1 108 30 104 22 -3 23 -7 23 -93z"/>
<path d="M2898 1954 c-5 -4 -8 -67 -8 -141 l0 -133 30 0 c28 0 30 2 30 39 0
38 1 39 40 46 49 8 60 26 60 97 0 75 -14 91 -86 96 -33 2 -62 0 -66 -4z m91
-58 c20 -24 10 -70 -16 -74 -21 -3 -23 1 -23 42 0 48 16 60 39 32z"/>
<path d="M3124 1945 c-10 -25 4 -45 31 -45 l25 0 0 -110 0 -110 25 0 25 0 0
109 0 110 28 3 c21 2 27 8 27 28 0 24 -2 25 -78 28 -62 2 -78 0 -83 -13z"/>
<path d="M3370 1820 l0 -140 65 0 c63 0 65 1 65 25 0 23 -4 25 -40 25 -38 0
-40 2 -40 30 0 28 3 30 35 30 31 0 35 3 35 25 0 22 -4 25 -36 25 -34 0 -35 1
-32 33 3 29 6 32 41 35 32 3 37 7 37 28 0 23 -3 24 -65 24 l-65 0 0 -140z"/>
<path d="M3597 1953 c-4 -3 -7 -66 -7 -140 l0 -133 30 0 c29 0 30 2 30 45 0
59 23 60 42 3 12 -35 20 -44 41 -46 31 -4 31 -2 13 58 -12 39 -12 49 0 65 30
41 11 138 -30 149 -29 8 -111 7 -119 -1z m98 -88 c0 -33 -3 -40 -20 -40 -15 0
-21 8 -23 28 -5 39 5 59 25 55 14 -2 18 -13 18 -43z"/>
<path d="M2777 1423 c-3 -4 -12 -36 -21 -70 -9 -34 -19 -70 -21 -80 -3 -10 2
-2 11 17 28 58 53 169 31 133z"/>
<path d="M3166 1419 c-36 -105 -51 -180 -32 -158 7 9 45 163 41 167 -2 3 -7
-1 -9 -9z"/>
<path d="M1891 1378 c-7 -24 -17 -53 -22 -66 -11 -28 -12 -52 -1 -52 7 0 45
151 39 157 -2 2 -9 -16 -16 -39z"/>
<path d="M1531 1358 c4 -29 8 -62 8 -72 1 -11 4 -17 7 -13 8 8 -7 137 -15 137
-4 0 -4 -24 0 -52z"/>
<path d="M1636 1398 c-22 -84 -33 -138 -27 -138 3 0 16 34 27 75 12 41 17 75
12 75 -5 0 -10 -6 -12 -12z"/>
<path d="M2446 1399 c-11 -32 -36 -123 -36 -131 0 -4 4 -8 8 -8 9 0 45 140 37
148 -2 3 -7 -1 -9 -9z"/>
<path d="M1706 1348 c-20 -33 -31 -72 -17 -64 6 4 11 15 11 24 0 10 7 28 16
40 8 12 13 22 10 22 -3 0 -12 -10 -20 -22z"/>
<path d="M2000 1354 c0 -8 5 -12 10 -9 6 3 10 10 10 16 0 5 -4 9 -10 9 -5 0
-10 -7 -10 -16z"/>
<path d="M2062 1321 c-7 -30 -10 -56 -8 -58 7 -8 28 66 24 89 -2 15 -7 4 -16
-31z"/>
<path d="M2169 1315 c-9 -30 -13 -55 -9 -55 9 0 34 85 29 99 -2 6 -11 -14 -20
-44z"/>
<path d="M2233 1332 c-6 -20 -15 -45 -18 -54 -4 -10 -3 -18 3 -18 10 0 38 97
30 105 -2 2 -9 -13 -15 -33z"/>
<path d="M2586 1353 c-6 -14 -5 -15 5 -6 7 7 10 15 7 18 -3 3 -9 -2 -12 -12z"/>
<path d="M2812 1364 c4 -3 -1 -26 -9 -50 -8 -25 -13 -47 -10 -50 5 -5 37 81
37 98 0 4 -5 8 -12 8 -6 0 -9 -3 -6 -6z"/>
<path d="M2893 1364 c3 -3 -1 -27 -8 -52 -16 -51 -14 -68 3 -25 19 51 23 83
11 83 -7 0 -10 -3 -6 -6z"/>
<path d="M2947 1322 c-20 -56 -21 -62 -5 -62 6 0 9 3 6 6 -4 3 1 26 9 50 8 25
13 47 11 49 -2 3 -12 -17 -21 -43z"/>
<path d="M3080 1346 c0 -14 -5 -37 -10 -53 -9 -26 -9 -27 5 -9 14 18 22 86 10
86 -3 0 -5 -11 -5 -24z"/>
<path d="M3270 1341 c0 -16 -3 -38 -6 -48 -5 -16 -4 -16 10 1 18 22 21 62 6
71 -6 4 -10 -6 -10 -24z"/>
<path d="M3340 1355 c-6 -8 -10 -21 -8 -31 2 -11 7 -6 15 15 13 34 11 38 -7
16z"/>
<path d="M3464 1314 c6 -30 12 -50 14 -44 6 17 -8 100 -17 100 -4 0 -2 -25 3
-56z"/>
<path d="M1759 1335 c-4 -16 -9 -39 -13 -50 -4 -11 0 -7 9 8 9 16 15 38 13 50
-3 18 -5 17 -9 -8z"/>
<path d="M2635 1326 c-8 -19 -12 -42 -9 -50 9 -23 23 -20 17 4 -3 11 0 33 5
50 15 41 4 38 -13 -4z"/>
<path d="M3020 1341 c-5 -11 -10 -35 -9 -53 1 -31 2 -31 10 10 4 23 11 47 14
52 3 6 4 10 1 10 -3 0 -10 -9 -16 -19z"/>
<path d="M3387 1341 c-4 -17 -3 -21 5 -13 5 5 8 16 6 23 -3 8 -7 3 -11 -10z"/>
<path d="M2530 1331 c-13 -25 -13 -71 0 -71 5 0 7 7 4 15 -3 8 -1 28 4 45 12
34 8 40 -8 11z"/>
<path d="M3210 1331 c-13 -26 -13 -58 2 -67 6 -4 8 -3 5 3 -3 5 -2 26 3 46 9
41 6 47 -10 18z"/>
<path d="M1810 1321 c-12 -24 -13 -48 -1 -55 5 -3 11 12 13 34 4 45 3 48 -12
21z"/>
<path d="M1939 1317 c-7 -15 -8 -34 -4 -44 6 -14 10 -9 15 22 9 48 5 57 -11
22z"/>
<path d="M3330 1271 c0 -6 6 -11 14 -11 8 0 23 -3 33 -6 12 -5 15 -4 8 3 -15
16 -55 26 -55 14z"/>
</g>
</svg>
